<?xml version="1.0" standalone="no"?>
<!DOCTYPE svg PUBLIC "-//W3C//DTD SVG 20010904//EN"
 "http://www.w3.org/TR/2001/REC-SVG-20010904/DTD/svg10.dtd">
<svg version="1.0" xmlns="http://www.w3.org/2000/svg"
 width="700.000000pt" height="700.000000pt" viewBox="0 0 700.000000 700.000000"
 preserveAspectRatio="xMidYMid meet">
<metadata>
Created by potrace 1.14, written by Peter Selinger 2001-2017
</metadata>
<g transform="translate(0.000000,700.000000) scale(0.100000,-0.100000)"
fill="#000000" stroke="none">
<path d="M3279 6996 c-2 -2 -42 -7 -89 -10 -47 -4 -96 -8 -110 -10 -14 -2 -46
-7 -71 -10 -25 -4 -57 -9 -70 -11 -13 -2 -42 -6 -64 -10 -79 -11 -335 -76
-442 -111 -316 -105 -588 -236 -873 -423 -47 -31 -87 -58 -90 -61 -3 -3 -41
-32 -85 -64 -44 -33 -82 -62 -85 -65 -3 -3 -34 -30 -70 -60 -104 -86 -357
-346 -452 -464 -373 -467 -607 -972 -717 -1552 -48 -250 -56 -343 -56 -645 1
-267 12 -407 50 -610 3 -14 7 -40 10 -57 14 -88 72 -305 116 -437 122 -364
296 -691 543 -1021 33 -44 62 -82 65 -85 4 -3 31 -34 61 -70 116 -139 337
-349 505 -481 388 -307 904 -552 1380 -655 11 -3 40 -9 65 -14 25 -5 54 -11
65 -14 23 -4 147 -23 217 -32 134 -16 265 -22 478 -19 129 2 244 6 256 8 11 3
54 8 95 12 40 4 76 8 79 10 3 1 27 6 55 9 27 4 83 14 125 22 41 8 89 18 105
21 120 21 443 129 635 212 471 205 958 576 1289 981 29 36 60 74 69 85 9 11
48 65 87 120 202 284 357 590 469 926 36 108 111 402 121 474 3 23 7 52 10 65
3 14 10 63 15 110 6 47 13 103 16 125 10 67 12 504 3 597 -13 142 -22 209 -39
308 -6 36 -13 79 -16 95 -12 67 -75 306 -104 395 -121 365 -313 732 -533 1020
-139 182 -359 416 -516 550 -343 293 -747 524 -1166 665 -119 40 -367 107
-440 119 -16 3 -70 12 -120 20 -49 8 -115 18 -145 21 -30 4 -68 9 -85 11 -35
5 -541 14 -546 10z m491 -701 c222 -34 410 -92 605 -186 530 -256 924 -742
1070 -1319 14 -52 27 -112 31 -134 3 -21 7 -47 9 -57 4 -19 13 -109 20 -194 2
-27 4 -111 5 -186 l0 -136 43 -28 c115 -76 212 -218 238 -346 42 -213 -43
-452 -206 -574 -27 -20 -55 -40 -62 -44 -9 -5 -13 -109 -13 -427 -1 -321 -5
-438 -16 -499 -60 -326 -253 -583 -549 -734 -84 -42 -221 -86 -305 -97 l-50
-7 0 -318 0 -319 -189 0 -188 0 -1 303 c0 166 -1 310 -1 320 -1 16 -42 17
-721 17 l-720 0 0 -320 0 -320 -188 0 -188 0 1 303 c0 166 -1 309 -3 318 -3
12 -24 20 -75 28 -122 20 -291 90 -387 160 -256 186 -406 448 -435 756 -2 17
-4 211 -4 432 -1 392 -1 402 -21 408 -11 3 -26 12 -32 18 -7 7 -36 31 -65 55
-52 43 -143 167 -143 194 0 8 -4 18 -8 24 -18 20 -35 103 -38 185 -3 87 10
160 40 220 9 18 16 36 16 41 0 32 129 171 209 223 l41 28 0 101 c2 262 17 412
61 593 75 312 244 630 464 872 278 306 665 532 1050 612 90 19 99 20 190 34
87 13 434 13 515 0z"/>
<path d="M3296 5804 c-111 -15 -292 -63 -375 -101 -31 -14 -72 -32 -91 -41
-118 -53 -289 -180 -402 -296 l-68 -70 43 -24 c169 -97 481 -198 702 -227 17
-2 48 -6 70 -9 172 -23 502 -24 625 -1 8 2 44 6 80 10 36 4 68 9 71 11 4 2 24
6 45 10 22 3 57 10 79 16 22 5 50 12 61 14 95 17 415 152 483 203 l22 17 -63
60 c-218 209 -481 353 -751 408 -39 8 -85 18 -102 21 -63 13 -332 12 -429 -1z"/>
<path d="M2116 4921 c-34 -76 -74 -184 -80 -213 -2 -13 -9 -41 -15 -63 -6 -23
-13 -59 -16 -80 -3 -22 -8 -56 -11 -75 -3 -19 -6 -104 -8 -187 -3 -150 -3
-153 18 -154 131 -4 3016 0 3023 4 5 3 8 25 7 49 -1 24 -3 87 -4 141 -4 163
-48 362 -120 542 -17 44 -34 83 -37 88 -2 4 -33 -19 -67 -51 -111 -104 -264
-194 -455 -267 -94 -36 -317 -97 -401 -110 -25 -3 -56 -8 -70 -10 -101 -15
-183 -20 -380 -19 -124 0 -252 3 -285 7 -350 46 -577 116 -825 258 -41 23
-134 95 -193 149 l-54 50 -27 -59z"/>
<path d="M1579 3785 c-8 -2 -3 -397 4 -402 6 -4 511 -6 1124 -6 l1113 0 0
-311 c0 -329 6 -386 50 -480 120 -254 374 -188 444 114 10 43 14 141 14 359 0
165 2 304 6 309 3 5 224 9 528 10 288 0 529 1 536 1 9 1 12 49 12 204 l0 203
-1915 0 c-1053 0 -1916 0 -1916 -1z"/>
<path d="M2014 3032 l-31 -3 2 -392 c1 -285 5 -404 14 -437 55 -193 215 -346
401 -384 46 -9 318 -12 1128 -11 l1067 1 65 23 c132 46 255 152 316 273 51
100 55 137 55 503 0 187 0 360 0 385 l-1 45 -142 -2 c-79 -1 -160 -2 -180 -2
l-38 -1 0 -208 c0 -245 -8 -299 -61 -410 -64 -133 -191 -245 -336 -296 -142
-50 -321 -41 -462 25 -101 47 -185 122 -247 222 -74 119 -86 182 -89 452 -2
110 -3 205 -4 210 -1 9 -1369 16 -1457 7z"/>
</g>
</svg>
