<svg aria-hidden="true" style="position: absolute; width: 0; height: 0; overflow: hidden;" version="1.1" xmlns="http://www.w3.org/2000/svg" xmlns:xlink="http://www.w3.org/1999/xlink">
<defs>

<symbol id="iconLogo" viewBox="0 0 32 32">
<path fill="#d81e46" style="fill: var(--color9, #d81e46)" d="M15.963 0c8.843 0 16.037 7.194 16.037 15.963 0 8.843-7.194 16.037-16.037 16.037-8.768 0-15.963-7.194-15.963-16.037 0-8.768 7.194-15.963 15.963-15.963zM12.665 25.93h6.595v2.923h1.724v-2.923c2.323-0.225 4.197-2.173 4.197-4.571v-3.447c0.824-0.45 1.349-1.349 1.349-2.323v0c0-0.974-0.525-1.799-1.349-2.248v-0.974c0-5.096-4.122-9.218-9.143-9.218v0c-5.096 0-9.218 4.122-9.218 9.218v0.974c-0.824 0.45-1.424 1.274-1.424 2.248v0c0 1.049 0.6 1.874 1.424 2.323v3.447c0 2.323 1.799 4.347 4.122 4.571v2.923h1.724v-2.923zM9.068 13.040h13.939v-0.674c0-1.124-0.3-2.173-0.749-3.148-1.124 1.274-3.522 2.173-6.22 2.173-2.773 0-5.171-0.899-6.22-2.173-0.525 0.974-0.749 2.023-0.749 3.148v0.674zM23.007 18.136h-1.649v1.649c0 1.499-1.199 2.698-2.773 2.698v0c-1.499 0-2.698-1.199-2.698-2.698v-1.649h-6.82v3.222c0 1.274 1.049 2.398 2.398 2.398h9.143c1.274 0 2.398-1.124 2.398-2.398v-3.222zM17.461 19.11c0 0.974 0.525 1.799 1.124 1.799 0.674 0 1.199-0.824 1.199-1.799v-2.548h4.946v-1.874h-17.536v1.874h10.267v2.548zM10.792 7.794c1.274 0.749 3.073 1.274 5.171 1.274s3.972-0.525 5.246-1.349c-1.274-1.424-3.148-2.323-5.171-2.323-2.098 0-3.972 0.899-5.246 2.398z"></path>
</symbol>

<symbol id="iconArrow1" viewBox="0 0 19 32">
<path fill="none" stroke="#d41443" style="stroke: var(--color1, #d41443)" stroke-linejoin="round" stroke-linecap="round" stroke-miterlimit="4" stroke-width="6.4" d="M3.2 3.2l12.8 12.8-12.8 12.8"></path>
</symbol>
<symbol id="iconArrow2" viewBox="0 0 32 32">
<path fill="#d81e46" style="fill: var(--color9, #d81e46)" d="M29.455 18.182l-15.273 13.818-1.818-4.364 9.455-8.727h-21.818v-5.818h21.818l-9.455-8.727 1.091-2.182 0.727-2.182 15.273 13.818 2.545 2.182z"></path>
</symbol>

<symbol id="iconMenu-burger" viewBox="0 0 46 32">
<path fill="none" stroke="#d41443" style="stroke: var(--color1, #d41443)" stroke-linejoin="miter" stroke-linecap="butt" stroke-miterlimit="4" stroke-width="2.2857" d="M0 2.286h45.714"></path>
<path fill="none" stroke="#d41443" style="stroke: var(--color1, #d41443)" stroke-linejoin="miter" stroke-linecap="butt" stroke-miterlimit="4" stroke-width="2.2857" d="M0 16h45.714"></path>
<path fill="none" stroke="#d41443" style="stroke: var(--color1, #d41443)" stroke-linejoin="miter" stroke-linecap="butt" stroke-miterlimit="4" stroke-width="2.2857" d="M0 29.714h45.714"></path>
</symbol>
<symbol id="iconClose" viewBox="0 0 32 32">
<path fill="none" stroke="#fff" style="stroke: var(--color2, #fff)" stroke-linejoin="miter" stroke-linecap="butt" stroke-miterlimit="4" stroke-width="2" d="M2.519 2l26.963 28"></path>
<path fill="none" stroke="#fff" style="stroke: var(--color2, #fff)" stroke-linejoin="miter" stroke-linecap="butt" stroke-miterlimit="4" stroke-width="2" d="M2 29.481l28-26.963"></path>
</symbol>

<symbol id="iconFacebook" viewBox="0 0 32 32">
<path  d="M20.446 15.982h-2.61v9.619h-3.955v-9.619h-1.881v-3.38h1.881v-2.187c0-1.564 0.739-4.014 3.99-4.014l2.929 0.012v3.281h-2.125c-0.349 0-0.839 0.175-0.839 0.921v1.989h2.955l-0.346 3.377z"></path>
</symbol>
<symbol id="iconGithub" viewBox="0 0 32 32">
<path d="M16 6.588c-5.169 0-9.412 4.242-9.412 9.412 0 4.411 3.095 8.419 7.206 9.412v-3.114c-0.407 0.089-0.782 0.092-1.197-0.030-0.556-0.164-1.008-0.535-1.344-1.1-0.214-0.361-0.593-0.752-0.988-0.723l-0.097-1.099c0.855-0.073 1.595 0.521 2.034 1.259 0.195 0.328 0.419 0.52 0.708 0.605 0.278 0.082 0.578 0.043 0.926-0.080 0.088-0.698 0.407-0.959 0.648-1.326v-0.001c-2.451-0.366-3.428-1.666-3.816-2.693-0.514-1.363-0.238-3.066 0.671-4.142 0.018-0.021 0.050-0.076 0.037-0.114-0.417-1.258 0.091-2.299 0.11-2.41 0.481 0.142 0.559-0.143 2.089 0.786l0.264 0.159c0.111 0.066 0.076 0.028 0.186 0.020 0.639-0.173 1.312-0.269 1.975-0.278 0.668 0.009 1.337 0.104 2.002 0.285l0.086 0.009c-0.007-0.001 0.023-0.005 0.075-0.036 1.911-1.157 1.842-0.779 2.355-0.946 0.019 0.111 0.519 1.169 0.107 2.411-0.056 0.171 1.657 1.739 0.708 4.256-0.388 1.027-1.365 2.328-3.816 2.693v0.001c0.314 0.479 0.692 0.734 0.69 1.722v3.887c4.111-0.993 7.206-5 7.206-9.412 0-5.169-4.242-9.412-9.412-9.412v0z"></path>
</symbol>
<symbol id="iconTelegram" viewBox="0 0 32 32">
<path d="M12.867 18.375l-0.318 4.169c0.454 0 0.651-0.182 0.887-0.401l2.13-1.9 4.415 3.017c0.81 0.421 1.38 0.199 1.599-0.695l2.898-12.672 0.001-0.001c0.257-1.117-0.433-1.554-1.222-1.28l-17.032 6.086c-1.162 0.421-1.145 1.026-0.198 1.3l4.355 1.264 10.115-5.907c0.476-0.294 0.909-0.131 0.553 0.163l-8.182 6.857z"></path>
</symbol>

<symbol id="iconDots" viewBox="0 0 256 32">
<path fill="#c7133e" style="fill: var(--color3, #c7133e)" d="M144 16c0 8.837-7.163 16-16 16s-16-7.163-16-16c0-8.837 7.163-16 16-16s16 7.163 16 16z"></path>
<path fill="#c7133e" style="fill: var(--color3, #c7133e)" d="M32 16c0 8.837-7.163 16-16 16s-16-7.163-16-16c0-8.837 7.163-16 16-16s16 7.163 16 16z"></path>
<path fill="#c7133e" style="fill: var(--color3, #c7133e)" d="M256 16c0 8.837-7.163 16-16 16s-16-7.163-16-16c0-8.837 7.163-16 16-16s16 7.163 16 16z"></path>
</symbol>
<symbol id="iconDot" viewBox="0 0 32 32">
<path fill="#d9d9d9" style="fill: var(--color5, #d9d9d9)" d="M32 16c0 8.837-7.163 16-16 16s-16-7.163-16-16c0-8.837 7.163-16 16-16s16 7.163 16 16z"></path>
</symbol>
<symbol id="iconHome" viewBox="0 0 35 32">
<path fill="#d31342" style="fill: var(--color6, #d31342)" d="M34.253 15.613c0.599-0.659 0.541-1.669-0.129-2.255l-14.772-12.926c-0.671-0.586-1.745-0.574-2.402 0.028l-14.822 13.587c-0.656 0.602-0.689 1.611-0.071 2.252l0.372 0.387c0.617 0.642 1.613 0.718 2.224 0.17l1.108-0.992v14.523c0 0.891 0.722 1.613 1.612 1.613h5.778c0.89 0 1.612-0.721 1.612-1.613v-10.16h7.37v10.16c-0.013 0.89 0.624 1.612 1.515 1.612h6.123c0.89 0 1.613-0.722 1.613-1.613v-14.318c0 0 0.306 0.268 0.683 0.6s1.168 0.066 1.767-0.594l0.42-0.462z"></path>
</symbol>
<symbol id="iconQuotes" viewBox="0 0 43 32">
<path fill="#e1e1e1" style="fill: var(--color7, #e1e1e1)" d="M32.014 0c1.929 0 3.75 0.52 5.464 1.561s3.107 2.537 4.179 4.488c1.029 1.951 1.543 4.249 1.543 6.894s-0.643 5.225-1.929 7.74c-0.429 0.911-1.2 2.081-2.314 3.512-1.157 1.431-2.229 2.667-3.214 3.707l-4.050 4.098-2.893-4.813c2.014-1.257 3.793-2.818 5.336-4.683 1.543-1.821 2.314-3.491 2.314-5.008 0-0.78-0.171-1.409-0.514-1.886-1.5 1.084-3.171 1.626-5.014 1.626-1.329 0-2.593-0.412-3.793-1.236-1.243-0.78-2.229-1.821-2.957-3.122-0.771-1.258-1.157-2.558-1.157-3.902 0-1.518 0.45-2.97 1.35-4.358 0.857-1.388 1.993-2.515 3.407-3.382 1.371-0.824 2.786-1.236 4.243-1.236zM8.936 0c1.929 0 3.75 0.52 5.464 1.561s3.107 2.537 4.179 4.488c1.029 1.951 1.543 4.249 1.543 6.894 0 1.864-0.236 3.534-0.707 5.008-0.471 1.518-1.286 3.1-2.443 4.748-1.114 1.561-2.164 2.862-3.15 3.902-0.986 1.084-2.7 2.884-5.143 5.398l-2.893-4.813c2.014-1.257 3.793-2.818 5.336-4.683 1.543-1.821 2.314-3.491 2.314-5.008 0-0.78-0.171-1.409-0.514-1.886-1.5 1.084-3.171 1.626-5.014 1.626-1.329 0-2.593-0.412-3.793-1.236-1.243-0.78-2.229-1.821-2.957-3.122-0.771-1.258-1.157-2.558-1.157-3.902 0-1.518 0.429-2.97 1.286-4.358s1.993-2.515 3.407-3.382c1.371-0.824 2.786-1.236 4.243-1.236z"></path>
</symbol>

<symbol id="iconBucket" viewBox="0 0 21 32">
<path fill="#f3a3b6" style="fill: var(--color8, #f3a3b6)" d="M-0.003 13.748c0 1.476 0 2.951 0 4.427l3.184 13.825h14.68l3.262-13.748c0-1.476 0-2.951 0-4.505 0-0.388-0.233-0.388-0.699-0.388-6.835 0-13.204 0-20.039 0-0.388 0-0.388 0-0.388 0.388zM3.725 22.447c4.583 1.709 9.087 1.786 13.592 0l0.621-0.233-1.476 7.922h-11.883l-1.398-7.922 0.544 0.233zM1.784 15.456h17.631l-0.155 0.388c-2.563 7.767-15.068 8.078-17.32 0l-0.155-0.388z"></path>
<path fill="#f3a3b6" style="fill: var(--color8, #f3a3b6)" d="M1.628 0.078c-1.476 1.243 1.32 5.204 1.32 5.282 0 0.699-2.252 4.505 0.699 5.204 1.398 0.544 2.951-1.786 3.262-2.641l1.243 0.311c0.233 1.476 0.078 4.505 2.408 4.505 2.097 0.078 2.252-2.563 2.408-4.427l1.243-0.388c0.621 0.311 1.631 1.942 2.874 2.252 1.709 0.466 2.796-0.932 2.33-2.485-0.621-2.563-1.709-1.631-0.621-3.184 0.621-1.010 1.32-2.718 1.010-4.194-0.466-0.311-0.777-0.466-1.32 0-0.311 0.544-0.155 2.019-1.010 3.262-1.165 1.709-1.476 1.087-0.466 2.796 1.709 2.641 0.932 3.184-1.010 1.087-1.476-1.709-0.621-1.398-2.951-0.777-0.854 0.233-1.476 0.078-1.631 0.777-0.233 1.087 0.155 3.417-0.854 3.728-1.010-0.544-0.544-2.641-0.854-3.728-0.155-0.699-0.777-0.621-1.553-0.777-0.777-0.233-1.087-0.544-2.019-0.466-0.544 0.854-1.398 2.874-2.33 2.796-0.233-0.699 0.155-1.709 0.388-2.485 0.544-1.553 0.854-1.087-0.078-2.33-0.466-0.621-0.854-1.243-1.087-2.175-0.233-1.010 0.078-2.408-1.398-1.942z"></path>
</symbol>
<symbol id="iconHeart" viewBox="0 0 28 32">
<path fill="#f3a3b6" style="fill: var(--color8, #f3a3b6)" d="M14.118 3.556c0.832-1.135 1.74-1.967 2.723-2.496 2.345-1.135 5.901-1.059 8.095 0.454 1.135 0.756 2.043 1.891 2.799 3.329 2.496 8.246-4.388 14.6-10.44 18.686v8.775h-6.279v-8.775c-6.052-4.085-12.936-10.44-10.44-18.686 0.756-1.437 1.664-2.572 2.799-3.329 2.118-1.513 5.749-1.589 8.019-0.454 1.059 0.53 1.967 1.362 2.723 2.496zM2.846 11.348c0.832-2.572 2.194-4.009 3.707-4.085 2.194-0.227 2.799 2.043 2.95 3.934 0 0.378 0.076 0.832 0.227 1.362s0.454 0.908 0.756 0.757c0.908-0.378-0.454-2.799 1.589-4.766 0.454-0.454 1.135-0.681 1.589-0.756 0.227 0 0.53 0 0.756 0 0.454 0.076 1.135 0.303 1.589 0.756 2.043 1.967 0.605 4.388 1.589 4.766 0.303 0.151 0.605-0.227 0.756-0.756 0.076-0.53 0.151-0.983 0.227-1.362 0.151-1.891 0.756-4.161 2.95-3.934 1.513 0.076 2.95 1.664 3.782 4.388 0.681-1.74 0.908-3.783 0.303-5.901-0.53-0.832-1.135-1.664-1.967-2.269-1.437-0.983-4.236-1.059-5.825-0.227-0.756 0.378-1.362 0.983-1.816 1.74-1.74 1.816-1.891 2.043-3.707 0-0.53-0.756-1.059-1.362-1.891-1.74-1.589-0.832-4.312-0.756-5.825 0.227-0.756 0.605-1.437 1.437-1.891 2.269-0.454 1.664-0.53 3.404 0 5.069 0.076 0.151 0.076 0.378 0.151 0.53zM23.725 14.525c-0.454-1.21-0.908-3.102-1.589-4.009-0.378-0.454-1.286-0.832-1.286 0.076-0.076 3.026-0.832 5.371-3.253 5.22-4.236-0.303-1.74-5.447-3.556-5.447s0.681 5.144-3.556 5.447c-2.421 0.151-3.177-2.194-3.253-5.22 0-0.908-0.908-0.53-1.286-0.076-0.681 0.832-1.135 2.572-1.513 3.783 1.967 2.95 5.144 5.447 7.792 7.262l1.967 1.362 1.816-1.362c1.589-1.059 3.102-2.194 4.463-3.404 1.21-1.135 2.345-2.345 3.253-3.631zM13.513 23.981h1.286v6.43h-1.286v-6.43z"></path>
</symbol>
<symbol id="iconApples" viewBox="0 0 32 32">
<path fill="#f3a3b6" style="fill: var(--color8, #f3a3b6)" d="M0.605 9.532c0 1.816 0 3.631 0 5.447l3.783 16.038h17.324l0.227-0.756 0.454 0.227c0.303 0.151 0.605 0.303 0.908 0.454l0.681 0.227 0.681-0.076c0.303-0.076 0.681-0.151 0.983-0.227l0.076-0.076 0.151 0.076c0.303 0.076 0.605 0.151 0.983 0.227l0.681 0.076 0.681-0.227c1.74-0.756 3.404-1.816 4.085-3.631 0.757-1.891 0.227-4.009-0.605-5.749-0.303-0.605-0.756-1.059-1.437-1.362-1.059-0.454-2.421-0.303-3.556 0.151l-0.53 0.227v-1.21l0.303-0.076c0.454-0.076 0.832-0.151 1.286-0.227 0.151-0.076 0.378-0.151 0.53-0.303 0.227-0.151 0.151-0.53 0.151-0.756-0.076-0.53-0.227-1.135-0.454-1.664-1.437 0.832-2.194 2.194-2.496 3.782l-0.076 0.454-0.454-0.151c-0.076-0.076-0.227-0.076-0.303-0.151l-0.303-0.076 1.21-5.144c0-1.891 0-3.707 0-5.598 0-0.151 0-0.151-0.076-0.151h-0.076v-0.303c-0.151-0.908-0.378-1.816-0.681-2.648-0.756-1.967-3.026-2.043-4.842-1.513l-0.605 0.227 0.076-1.21 0.378-0.076c0.378 0 0.832 0 1.21-0.076 0.227-0.076 0.454-0.151 0.605-0.303 0.227-0.151 0.227-0.53 0.227-0.756-0.076-0.53-0.227-1.135-0.378-1.664-1.437 0.681-2.27 2.043-2.723 3.556l-0.076 0.53-0.53-0.227c-1.135-0.605-2.723-0.908-3.934-0.303l-0.303 0.151-0.227-0.303c-0.378-0.53-0.832-0.983-1.362-1.437-1.589-1.589-3.707-0.756-5.22 0.53l-0.454 0.378-0.454-1.135 0.303-0.151c0.378-0.227 0.756-0.378 1.135-0.681 0.151-0.076 0.378-0.227 0.454-0.454s-0.076-0.605-0.227-0.832c-0.076-0.227-0.303-0.53-0.454-0.756-0.227-0.227-0.378-0.454-0.605-0.681-0.454 0.53-0.756 1.21-0.908 1.891-0.227 0.832-0.227 1.74-0.076 2.648l0.151 0.454h-0.53c-0.227 0-0.378 0-0.53 0-1.891 0.076-3.858 0.832-3.934 2.875-0.076 0.605-0.076 1.21 0 1.891 0 0.076 0 0.227 0.076 0.378h-0.076c-0.227 0-0.303 0-0.303 0.227zM7.338 6.809c0-0.076 0-0.076 0.076-0.151 0.076-0.303 0.227-0.605 0.454-0.832 0.605-0.832 1.437-1.286 2.421-1.513h0.227l0.151 0.151c0.681 0.605 1.286 1.286 1.74 2.043l0.076 0.151-0.076 0.151c-0.303 0.681-0.53 1.437-0.605 2.194l-0.076 0.303h-8.548v-0.303c-0.076-0.605-0.076-1.21-0.076-1.816v-0.227l0.227-0.151c0.908-0.454 1.891-0.681 2.875-0.454 0.303 0.076 0.605 0.227 0.908 0.378 0.076 0 0.151 0.076 0.227 0.076zM18.686 7.868c0.076 0 0.151-0.076 0.151-0.076 0.227-0.227 0.53-0.454 0.756-0.605 0.908-0.53 1.816-0.53 2.799-0.378l0.227 0.076 0.076 0.227c0.227 0.53 0.454 1.135 0.53 1.74l0.076 0.454h-8.246v-0.454c0.076-0.605 0.076-1.286-0.151-1.967l-0.151-0.454 0.53-0.076c0.983 0 1.891 0.151 2.648 0.756 0.303 0.227 0.454 0.378 0.681 0.681 0 0 0.076 0.076 0.076 0.076zM20.047 28.823h-13.995l-1.664-9.154 0.681 0.227c1.967 0.681 4.009 1.21 6.052 1.437 2.95 0.303 5.825-0.076 8.548-0.908l1.286-0.454-0.756 1.059c-0.151 0.151-0.227 0.303-0.378 0.53-0.983 2.118-1.513 4.615-0.151 6.657l0.378 0.605zM25.721 23.452c0.076-0.076 0.151-0.076 0.151-0.151 0.227-0.227 0.454-0.454 0.756-0.605 0.832-0.605 1.74-0.681 2.799-0.53h0.227l0.076 0.227c0.53 1.286 1.135 2.799 0.605 4.161-0.53 1.286-1.74 1.967-2.95 2.496h-0.227c-0.454-0.076-0.908-0.227-1.286-0.454-0.076 0-0.151 0-0.227 0-0.378 0.227-0.832 0.378-1.286 0.454h-0.227c-1.21-0.53-2.421-1.21-2.95-2.496-0.53-1.362 0-2.875 0.605-4.161l0.076-0.227h0.227c1.059-0.151 1.967-0.076 2.799 0.53 0.303 0.151 0.53 0.378 0.756 0.605 0 0.076 0.076 0.076 0.076 0.151zM2.799 11.726h20.728l-0.151 0.53c-2.95 9.002-17.778 9.305-20.426-0.076l-0.151-0.454z"></path>
</symbol>
<symbol id="icon-modal-close" viewBox="0 0 32 32">
<path d="M26.667 7.303l-1.97-1.97-7.808 7.808-7.808-7.808-1.97 1.97 7.808 7.808-7.808 7.808 1.97 1.97 7.808-7.808 7.808 7.808 1.97-1.97-7.808-7.808 7.808-7.808z"></path>
</symbol>
<symbol id="icon-person" viewBox="0 0 32 32">
<path d="M16 16c2.946 0 5.333-2.388 5.333-5.333s-2.388-5.333-5.333-5.333v0c-2.946 0-5.333 2.388-5.333 5.333s2.388 5.333 5.333 5.333v0zM16 18.667c-3.561 0-10.667 1.787-10.667 5.333v1.333c0 0.732 0.599 1.333 1.333 1.333h18.667c0.732 0 1.333-0.601 1.333-1.333v-1.333c0-3.547-7.108-5.333-10.667-5.333z"></path>
</symbol>
<symbol id="icon-phone" viewBox="0 0 32 32">
<path d="M24.882 19.774l-3.268-0.373c-0.090-0.011-0.194-0.018-0.3-0.018-0.707 0-1.347 0.287-1.81 0.75l-2.368 2.368c-3.669-1.894-6.585-4.81-8.427-8.372l-0.051-0.108 2.382-2.377c0.463-0.463 0.75-1.103 0.75-1.81 0-0.106-0.006-0.21-0.019-0.312l0.001 0.012-0.373-3.243c-0.155-1.287-1.24-2.276-2.557-2.276-0.001 0-0.002 0-0.003 0h-2.226c-1.454 0-2.663 1.209-2.574 2.661 0.683 10.987 9.47 19.762 20.444 20.444 1.452 0.089 2.663-1.12 2.663-2.574v-2.226c0-0.004 0-0.008 0-0.012 0-1.308-0.985-2.386-2.253-2.532l-0.012-0.001z"></path>
</symbol>
<symbol id="icon-check" viewBox="0 0 42 32">
<path fill="#fff" style="fill: var(--color1, #fff); stroke: var(--color1, #fff)" stroke="#fff" stroke-linejoin="miter" stroke-linecap="butt" stroke-miterlimit="4" stroke-width="0.64" d="M6.263 15.205l-0.22-0.21-3.307 3.132 11.651 11.114 24.477-23.351-3.285-3.134-21.192 20.197-8.124-7.75z"></path>
</symbol>
<symbol id="icon-adress" viewBox="0 0 32 32">
<path d="M16 0c-5.523 0-10 4.477-10 10 0 10 10 22 10 22s10-12 10-22c0-5.523-4.477-10-10-10zM16 16.125c-3.383 0-6.125-2.742-6.125-6.125s2.742-6.125 6.125-6.125 6.125 2.742 6.125 6.125-2.742 6.125-6.125 6.125zM12.125 10c0-2.14 1.735-3.875 3.875-3.875s3.875 1.735 3.875 3.875c0 2.14-1.735 3.875-3.875 3.875s-3.875-1.735-3.875-3.875z"></path>
</symbol>
</defs>
</svg>
