<svg aria-hidden="true" style="position: absolute; width: 0; height: 0; overflow: hidden;" version="1.1" xmlns="http://www.w3.org/2000/svg" xmlns:xlink="http://www.w3.org/1999/xlink">
<defs>
<symbol id="icon-icon_bucket" viewBox="0 0 21 32">
<path fill="#f3a3b6" style="fill: var(--color1, #f3a3b6)" d="M0.007 14.071v4.463l3.177 13.844h14.676l3.253-13.768v-4.463c0-0.454-0.151-0.454-0.605-0.454h-20.123c-0.378 0-0.378 0-0.378 0.378zM1.596 0.454c-1.362 1.286 1.362 5.144 1.362 5.22 0 0.681-2.269 4.539 0.681 5.22 1.362 0.605 3.026-1.74 3.253-2.648l1.286 0.378c0.227 1.437 0.076 4.388 2.345 4.463 2.194 0 2.269-2.572 2.496-4.463l1.21-0.378c0.605 0.378 1.589 1.967 2.875 2.269 1.664 0.454 2.799-0.908 2.345-2.496-0.681-2.572-1.74-1.589-0.681-3.253 0.605-0.832 1.286-2.345 1.135-3.707 0-0.454-0.076-0.605-0.378-0.681-2.95-0.53-12.255-0.151-15.811-0.151-1.21 0.076-1.816-0.076-2.118 0.227zM18.239 1.664c-0.076 0.681-0.227 1.513-0.756 2.269-1.135 1.74-1.437 1.059-0.454 2.723 1.664 2.648 0.908 3.253-0.983 1.135-1.513-1.664-0.681-1.437-3.026-0.832-0.756 0.227-1.362 0.151-1.589 0.832-0.227 1.059 0.151 3.48-0.908 3.783-0.983-0.53-0.53-2.648-0.757-3.783-0.151-0.681-0.832-0.605-1.589-0.832-0.832-0.151-1.135-0.53-2.043-0.378-0.53 0.832-1.362 2.875-2.345 2.799-0.227-0.757 0.151-1.74 0.454-2.496 0.53-1.589 0.832-1.135-0.076-2.421-0.454-0.53-0.908-1.21-1.135-2.118-0.076-0.227-0.076-0.454-0.076-0.681h15.281zM3.79 22.771c4.539 1.74 9.002 1.816 13.541 0l0.605-0.227-1.513 7.943h-11.877l-1.362-7.943 0.605 0.227zM1.823 15.735h17.551l-0.076 0.454c-2.572 7.792-15.054 8.019-17.324 0l-0.151-0.454z"></path>
</symbol>
</defs>
</svg>
