<svg aria-hidden="true" style="position: absolute; width: 0; height: 0; overflow: hidden;" version="1.1" xmlns="http://www.w3.org/2000/svg" xmlns:xlink="http://www.w3.org/1999/xlink">
<defs>
<symbol id="icon-gift-box" viewBox="0 0 32 32">
<path fill="#fdbf00" style="fill: var(--color1, #fdbf00)" d="M20.5 19.5h2.5c0.276 0 0.5 0.224 0.5 0.5v0 7.5h5v-15h-8z"></path>
<path fill="#fdbf00" style="fill: var(--color1, #fdbf00)" d="M13.5 12.5h-8l0.006 7h7.993v-7z"></path>
<path fill="#f03800" style="fill: var(--color2, #f03800)" d="M22 5.545v-3.046h-2.75c-0.979 0.058-1.752 0.866-1.752 1.854 0 0.026 0.001 0.053 0.002 0.079l-0-0.004v3.071h2.75c0.98-0.059 1.753-0.868 1.753-1.857 0-0.034-0.001-0.068-0.003-0.102l0 0.005z"></path>
<path fill="#f03800" style="fill: var(--color2, #f03800)" d="M13.75 7.5h2.75v-3.046c0.002-0.029 0.003-0.063 0.003-0.097 0-0.99-0.773-1.799-1.747-1.857l-0.005-0h-2.75v3.046c-0.002 0.029-0.003 0.063-0.003 0.097 0 0.99 0.773 1.799 1.747 1.857l0.005 0z"></path>
<path fill="#f03800" style="fill: var(--color2, #f03800)" d="M14.5 12.5h5v7h-5v-7z"></path>
<path fill="#fd9200" style="fill: var(--color3, #fd9200)" d="M20.5 8.5h8v3h-8v-3z"></path>
<path fill="#fd9200" style="fill: var(--color3, #fd9200)" d="M5.5 8.5h8v3h-8v-3z"></path>
<path fill="#f03800" style="fill: var(--color2, #f03800)" d="M14.5 8.5h5v3h-5v-3z"></path>
<path fill="#d8d8fc" style="fill: var(--color4, #d8d8fc)" d="M9.5 22.5c0 0.276-0.224 0.5-0.5 0.5s-0.5-0.224-0.5-0.5v0-2h-5v9h5v-2c0-0.276 0.224-0.5 0.5-0.5s0.5 0.224 0.5 0.5v0 2h13v-9h-13zM5.5 28c0 0.276-0.224 0.5-0.5 0.5s-0.5-0.224-0.5-0.5v0-6c0-0.276 0.224-0.5 0.5-0.5s0.5 0.224 0.5 0.5v0zM7.508 28c0 0.276-0.224 0.5-0.5 0.5s-0.5-0.224-0.5-0.5v0-6c0-0.276 0.224-0.5 0.5-0.5s0.5 0.224 0.5 0.5v0zM9.5 26c0 0.276-0.224 0.5-0.5 0.5s-0.5-0.224-0.5-0.5v0-2c0-0.276 0.224-0.5 0.5-0.5s0.5 0.224 0.5 0.5v0zM15.995 26.5h-4.995c-0.276 0-0.5-0.224-0.5-0.5s0.224-0.5 0.5-0.5v0h4.995c0.276 0 0.5 0.224 0.5 0.5s-0.224 0.5-0.5 0.5v0zM18.5 22.35v-0.35c0-0.276 0.224-0.5 0.5-0.5s0.5 0.224 0.5 0.5v0 0.35c0.652 0.218 1.114 0.823 1.114 1.535v0c0 0.276-0.224 0.5-0.5 0.5s-0.5-0.224-0.5-0.5v0c0-0.339-0.275-0.614-0.614-0.614s-0.614 0.275-0.614 0.614c0 0.339 0.275 0.614 0.614 0.614v0c0 0 0.001 0 0.001 0 0.892 0 1.614 0.723 1.614 1.614 0 0.713-0.463 1.319-1.104 1.532l-0.011 0.003v0.35c0 0.276-0.224 0.5-0.5 0.5s-0.5-0.224-0.5-0.5v0-0.35c-0.652-0.217-1.114-0.822-1.114-1.535v-0c0-0.276 0.224-0.5 0.5-0.5s0.5 0.224 0.5 0.5v0c0 0.339 0.275 0.614 0.614 0.614s0.614-0.275 0.614-0.614-0.275-0.614-0.614-0.614v0c-0 0-0.001 0-0.001 0-0.892 0-1.614-0.723-1.614-1.614 0-0.713 0.463-1.319 1.104-1.532l0.011-0.003zM16.495 24c0 0.276-0.224 0.5-0.5 0.5v0h-4.995c-0.276 0-0.5-0.224-0.5-0.5s0.224-0.5 0.5-0.5v0h4.995c0.276 0 0.5 0.224 0.5 0.5v0z"></path>
<path fill="#000" style="fill: var(--color5, #000)" d="M9 23.5c-0.276 0-0.5 0.224-0.5 0.5v0 2c0 0.276 0.224 0.5 0.5 0.5s0.5-0.224 0.5-0.5v0-2c0-0.276-0.224-0.5-0.5-0.5v0z"></path>
<path fill="#000" style="fill: var(--color5, #000)" d="M29 7.5h-6.689c0.429-0.523 0.689-1.199 0.689-1.936 0-0.006-0-0.013-0-0.019v0.001-3.546c0-0.276-0.224-0.5-0.5-0.5v0h-3.25c-0.944 0.012-1.769 0.505-2.244 1.246l-0.006 0.011c-0.481-0.751-1.306-1.245-2.248-1.256l-0.002-0h-3.25c-0.276 0-0.5 0.224-0.5 0.5v0 3.545c-0 0.005-0 0.012-0 0.018 0 0.737 0.26 1.413 0.693 1.941l-0.004-0.005h-6.689c-0.276 0-0.5 0.224-0.5 0.5v0l0.007 11.5h-1.507c-0.276 0-0.5 0.224-0.5 0.5v0 10c0 0.276 0.224 0.5 0.5 0.5v0h20c0.276 0 0.5-0.224 0.5-0.5v0-1.5h5.5c0.276 0 0.5-0.224 0.5-0.5v0-20c0-0.276-0.224-0.5-0.5-0.5v0zM22.5 29.5h-13v-2c0-0.276-0.224-0.5-0.5-0.5s-0.5 0.224-0.5 0.5v0 2h-5v-9h5v2c0 0.276 0.224 0.5 0.5 0.5s0.5-0.224 0.5-0.5v0-2h13zM12 2.5h2.75c0.98 0.059 1.753 0.868 1.753 1.857 0 0.034-0.001 0.068-0.003 0.102l0-0.005v3.045h-2.75c-0.98-0.059-1.753-0.868-1.753-1.857 0-0.034 0.001-0.068 0.003-0.102l-0 0.005zM17.5 4.429c-0.001-0.022-0.002-0.049-0.002-0.075 0-0.989 0.772-1.797 1.746-1.854l0.005-0h2.75v3.045c0.002 0.029 0.003 0.063 0.003 0.097 0 0.99-0.773 1.799-1.747 1.857l-0.005 0h-2.75zM5.5 12.5h8v7h-7.993zM19.5 19.5h-5v-7h5zM19.5 11.5h-5v-3h5zM5.5 8.5h8v3h-8zM28.5 27.5h-5v-7.5c0-0.276-0.224-0.5-0.5-0.5v0h-2.5v-7h8zM28.5 11.5h-8v-3h8z"></path>
<path fill="#000" style="fill: var(--color5, #000)" d="M11 23.5c-0.276 0-0.5 0.224-0.5 0.5s0.224 0.5 0.5 0.5v0h4.995c0.276 0 0.5-0.224 0.5-0.5s-0.224-0.5-0.5-0.5v0z"></path>
<path fill="#000" style="fill: var(--color5, #000)" d="M15.995 25.5h-4.995c-0.276 0-0.5 0.224-0.5 0.5s0.224 0.5 0.5 0.5v0h4.995c0.276 0 0.5-0.224 0.5-0.5s-0.224-0.5-0.5-0.5v0z"></path>
<path fill="#000" style="fill: var(--color5, #000)" d="M5 21.5c-0.276 0-0.5 0.224-0.5 0.5v0 6c0 0.276 0.224 0.5 0.5 0.5s0.5-0.224 0.5-0.5v0-6c0-0.276-0.224-0.5-0.5-0.5v0z"></path>
<path fill="#000" style="fill: var(--color5, #000)" d="M7.008 21.5c-0.276 0-0.5 0.224-0.5 0.5v0 6c0 0.276 0.224 0.5 0.5 0.5s0.5-0.224 0.5-0.5v0-6c0-0.276-0.224-0.5-0.5-0.5v0z"></path>
<path fill="#000" style="fill: var(--color5, #000)" d="M19 25.5c0.339 0 0.614 0.275 0.614 0.614s-0.275 0.614-0.614 0.614c-0.339 0-0.614-0.275-0.614-0.614v0c0-0.276-0.224-0.5-0.5-0.5s-0.5 0.224-0.5 0.5v0c0 0.713 0.462 1.318 1.103 1.532l0.011 0.003v0.35c0 0.276 0.224 0.5 0.5 0.5s0.5-0.224 0.5-0.5v0-0.35c0.653-0.217 1.116-0.822 1.116-1.535 0-0.892-0.723-1.614-1.614-1.614-0 0-0.001 0-0.001 0h0c-0.339-0-0.613-0.275-0.613-0.614s0.275-0.614 0.614-0.614 0.614 0.275 0.614 0.614v0c0 0.276 0.224 0.5 0.5 0.5s0.5-0.224 0.5-0.5v0c-0-0.713-0.462-1.318-1.103-1.533l-0.011-0.003v-0.35c0-0.276-0.224-0.5-0.5-0.5s-0.5 0.224-0.5 0.5v0 0.35c-0.653 0.217-1.116 0.822-1.116 1.535 0 0.892 0.723 1.614 1.614 1.614 0 0 0.001 0 0.001 0h-0z"></path>
</symbol>
<symbol id="icon-gift-star" viewBox="0 0 32 32">
<path fill="#8ec737" style="fill: var(--color6, #8ec737)" d="M23.272 18.793l-1.050-1.608 8.323-5.457c0.3-0.197 0.704-0.113 0.9 0.188l0.34 0.52c0.196 0.3 0.112 0.702-0.188 0.898l-8.325 5.458z"></path>
<path fill="#8ec737" style="fill: var(--color6, #8ec737)" d="M8.728 18.793l1.050-1.608-8.323-5.457c-0.3-0.197-0.704-0.113-0.9 0.188l-0.34 0.52c-0.196 0.3-0.112 0.702 0.188 0.898l8.325 5.458z"></path>
<path fill="#ffce8b" style="fill: var(--color7, #ffce8b)" d="M19.781 3.234l-1.598 1.557 0.377 2.199c0.056 0.329-0.289 0.581-0.585 0.425l-1.975-1.039-1.975 1.039c-0.296 0.156-0.641-0.096-0.585-0.425l0.177-1.037 0.199-1.162-1.598-1.557c-0.239-0.233-0.107-0.639 0.223-0.688l2.208-0.321 0.988-2.001c0.148-0.299 0.575-0.299 0.723 0l0.988 2.001 2.208 0.321c0.331 0.048 0.462 0.455 0.223 0.688z"></path>
<path fill="#ffb54e" style="fill: var(--color8, #ffb54e)" d="M19.781 3.234l-1.598 1.557 0.377 2.199c0.056 0.329-0.289 0.581-0.585 0.425l-1.975-1.039-1.975 1.039c-0.296 0.156-0.641-0.096-0.585-0.425l0.177-1.037c2.963-0.82 4.172-2.482 4.661-3.593l1.278 0.185c0.331 0.048 0.462 0.455 0.223 0.688z"></path>
<path fill="#bdeb73" style="fill: var(--color9, #bdeb73)" d="M23.364 32h-14.728c-0.353 0-0.639-0.286-0.639-0.639v-14.728c0-0.353 0.286-0.639 0.639-0.639h14.728c0.353 0 0.639 0.286 0.639 0.639v14.728c0 0.353-0.286 0.639-0.639 0.639z"></path>
<path fill="#a4e540" style="fill: var(--color10, #a4e540)" d="M24.003 16.632v14.728c0 0.353-0.286 0.639-0.639 0.639h-1.505c0.353 0 0.639-0.287 0.639-0.639v-14.728c0-0.353-0.287-0.639-0.639-0.639h1.505c0.354-0 0.639 0.286 0.639 0.639z"></path>
<path fill="#e3f6c5" style="fill: var(--color11, #e3f6c5)" d="M24.003 19.211v5.289c-0.468 0.474-0.976 0.989-1.505 1.523-2.072 2.096-4.457 4.497-5.956 5.977h-5.329l12.79-12.789z"></path>
<path fill="#bdeb73" style="fill: var(--color9, #bdeb73)" d="M24.003 19.211v5.289c-0.468 0.474-0.976 0.989-1.505 1.523v-5.307l1.505-1.505z"></path>
<path fill="#e3f6c5" style="fill: var(--color11, #e3f6c5)" d="M20.993 15.993c-3.657 3.684-9.154 9.216-12.997 13.051v-5.336l7.715-7.715h5.282z"></path>
<path fill="#8ecbfd" style="fill: var(--color12, #8ecbfd)" d="M20.73 13.221c-0.018 0-0.035-0.001-0.053-0.003-0.265-0.029-0.456-0.267-0.427-0.532 0.022-0.199 0.576-4.916 4.382-8.295 0.199-0.177 0.505-0.159 0.682 0.041s0.159 0.505-0.041 0.682c-3.52 3.124-4.058 7.632-4.063 7.678-0.027 0.247-0.237 0.43-0.479 0.43z"></path>
<path fill="#ed6264" style="fill: var(--color13, #ed6264)" d="M10.505 13.271c-0.246 0-0.457-0.188-0.48-0.438v0c-0.008-0.080-0.801-8.052-5.025-10.936-0.22-0.15-0.277-0.451-0.127-0.671s0.451-0.277 0.671-0.127c1.944 1.328 3.452 3.698 4.48 7.045 0.756 2.461 0.953 4.512 0.961 4.599 0.025 0.266-0.17 0.501-0.436 0.526-0.015 0.001-0.030 0.002-0.045 0.002z"></path>
<path fill="#ffce8b" style="fill: var(--color7, #ffce8b)" d="M16 13.796c-0.267 0-0.483-0.216-0.483-0.483v-3.973c0-0.267 0.216-0.483 0.483-0.483s0.483 0.216 0.483 0.483v3.973c0 0.267-0.216 0.483-0.483 0.483z"></path>
<path fill="#a4e540" style="fill: var(--color10, #a4e540)" d="M5.842 7.143c0 0.942-0.764 1.706-1.706 1.706s-1.706-0.764-1.706-1.706c0-0.942 0.764-1.706 1.706-1.706s1.706 0.764 1.706 1.706z"></path>
<path fill="#8ec737" style="fill: var(--color6, #8ec737)" d="M5.799 7.525c-0.211 0.918-1.126 1.491-2.044 1.281-0.025-0.006-0.049-0.012-0.074-0.019 0.583-0.162 1.062-0.631 1.207-1.262 0.205-0.893-0.332-1.783-1.207-2.026 0.264-0.074 0.551-0.084 0.837-0.019 0.918 0.211 1.492 1.126 1.281 2.044z"></path>
<path fill="#8998dd" style="fill: var(--color14, #8998dd)" d="M29.569 2.384c0 0.942-0.764 1.706-1.706 1.706s-1.706-0.764-1.706-1.706c0-0.942 0.764-1.706 1.706-1.706s1.706 0.764 1.706 1.706z"></path>
<path fill="#6d80d6" style="fill: var(--color15, #6d80d6)" d="M29.525 2.765c-0.211 0.918-1.126 1.491-2.044 1.281-0.025-0.006-0.049-0.012-0.074-0.019 0.583-0.162 1.061-0.631 1.207-1.262 0.205-0.893-0.332-1.783-1.207-2.026 0.264-0.074 0.551-0.084 0.837-0.019 0.918 0.211 1.492 1.126 1.281 2.044z"></path>
</symbol>
<symbol id="icon-tada" viewBox="0 0 32 32">
<path fill="#fcc21b" style="fill: var(--color16, #fcc21b)" d="M18.148 14.59c-0.163 0.295-0.325 0.592-0.48 0.887l-0.13 0.245-0.012 0.020c0.457 0.607 0.85 1.26 1.16 1.923 0.045 0.093 0.087 0.188 0.13 0.282 0.442-0.13 0.887-0.203 1.323-0.22-0.328-0.867-0.832-1.768-1.575-2.678-0.13-0.158-0.273-0.307-0.415-0.46z"></path>
<path fill="#fcc21b" style="fill: var(--color16, #fcc21b)" d="M19.483 21.29c-0.093 0-0.188 0.005-0.282 0.015-0.517 1.635-2.197 2.35-3.973 2.13-2.787-0.343-5.345-2.462-6.203-5.125-0.175-0.532-0.235-1.063-0.255-1.628-0.050-1.455 0.23-3.012 1.688-3.615l0.018-0.008c0.047-0.020 0.095-0.033 0.143-0.047-0.105-0.158-0.213-0.322-0.315-0.505-0.145-0.258-0.232-0.53-0.285-0.795-1.563 0.545-2.515 1.925-3.183 3.445-0.638 1.455-4.78 12.643-4.78 12.643l-0.555 1.5c-0.19 0.52-0.485 1.043-0.485 1.61 0 0.663 0.59 1.115 1.255 0.93 0.445-0.125 0.935-0.355 1.388-0.535 0.958-0.39 2.732-1.157 2.732-1.157l7.42-3.055c0 0 3.578-1.295 5.082-2.712 0.73-0.688 1.315-1.677 1.573-2.86-0.052-0.027-0.108-0.058-0.163-0.080-0.25-0.102-0.517-0.15-0.82-0.15z"></path>
<path fill="#fcc21b" style="fill: var(--color16, #fcc21b)" d="M13.92 11.885c0.193 0.367 0.405 0.785 0.485 1.303 0.355 0.15 0.695 0.33 1.018 0.543 0.113-0.36 0.23-0.715 0.352-1.078-0.053-0.033-0.105-0.070-0.158-0.1-0.527-0.3-1.12-0.555-1.738-0.745 0.015 0.027 0.027 0.050 0.040 0.078z"></path>
<path fill="#d7598b" style="fill: var(--color17, #d7598b)" d="M27.983 7.995c-0.040 0.25-0.030 0.605 0.010 0.85 0.043 0.275 0.105 0.568 0.205 0.828 0.142 0.365 0.317 0.238 0.675 0.188 0.247-0.033 0.477-0.015 0.723-0.065 0.258-0.053 0.512-0.12 0.77-0.17 0.605-0.115 0.907-0.25 0.78-0.887-0.093-0.46-0.245-0.918-0.365-1.373-0.11-0.098-0.323-0.043-0.453-0.013-0.23 0.053-0.457 0.065-0.688 0.105-0.415 0.067-0.85 0.117-1.258 0.215-0.207 0.045-0.367 0.107-0.4 0.322z"></path>
<path fill="#40c0e7" style="fill: var(--color18, #40c0e7)" d="M24.718 15.5c0.095 0.217 0.328 0.162 0.555 0.213 0.505 0.115 1.017 0.102 1.535 0.102 0.192 0 0.68 0.072 0.817-0.1 0.11-0.14 0.015-0.418 0-0.58-0.020-0.213-0.040-0.422-0.060-0.635-0.010-0.1 0.008-0.755-0.078-0.81-0.145-0.098-0.42-0.050-0.585-0.047-0.302 0.010-0.6 0.047-0.907 0.047-0.398 0-0.828 0.005-1.212 0.1-0.135 0.357-0.098 0.73-0.098 1.123 0 0.182-0.040 0.418 0.032 0.588z"></path>
<path fill="#d7598b" style="fill: var(--color17, #d7598b)" d="M22.98 26.297c-0.207-0.308-0.31-0.72-0.773-0.675-0.435 0.043-0.82 0.387-1.203 0.575-0.247 0.12-0.427 0.335-0.477 0.605-0.058 0.308 0.070 0.552 0.218 0.815 0.11 0.198 0.183 0.425 0.27 0.633 0.090 0.215 0.227 0.407 0.32 0.62 0.063 0.15 0.043 0.137 0.18 0.19 0.070 0.025 0.185 0.045 0.26 0.047 0.438 0.012 0.913-0.43 1.23-0.69 0.255-0.205 0.765-0.335 0.712-0.723-0.038-0.288-0.238-0.565-0.375-0.813-0.115-0.203-0.238-0.398-0.363-0.585z"></path>
<path fill="#40c0e7" style="fill: var(--color18, #40c0e7)" d="M27.865 28.398c-0.058-0.038-0.113-0.060-0.163-0.067-0.265-0.047-0.44 0.273-0.65 0.48-0.253 0.242-0.552 0.435-0.782 0.7-0.247 0.29-0.055 0.55 0.2 0.705 0.277 0.168 0.525 0.378 0.8 0.552 0.245 0.157 0.442 0.297 0.715 0.128 0.247-0.155 0.385-0.427 0.555-0.655 0.315-0.425 0.852-0.767 0.325-1.235-0.295-0.262-0.675-0.392-1-0.608z"></path>
<path fill="#40c0e7" style="fill: var(--color18, #40c0e7)" d="M2.25 13.765c0.013-0.115 0.337-1.035 0.24-1.063-0.223-0.055-0.433-0.16-0.657-0.22-0.26-0.068-0.528-0.12-0.77-0.24-0.292-0.145-0.472-0.072-0.595 0.090-0.172 0.23-0.228 0.643-0.31 0.895-0.065 0.197-0.105 0.422 0.035 0.563 0.16 0.158 0.425 0.248 0.632 0.315 0.26 0.085 0.55 0.235 0.817 0.26 0.365 0.040 0.57-0.29 0.607-0.6z"></path>
<path fill="#40c0e7" style="fill: var(--color18, #40c0e7)" d="M17.157 4.885c0.325 0.145 0.64 0.228 0.973 0.322 0.117 0.035 0.192 0.093 0.315 0.027 0.157-0.080 0.332-0.357 0.42-0.51 0.207-0.378 0.36-0.75 0.503-1.147 0.078-0.212 0.308-0.558 0.25-0.782-0.050-0.19-0.325-0.308-0.48-0.39-0.207-0.107-0.405-0.252-0.615-0.345-0.27-0.117-0.64-0.245-0.93-0.288-0.16-0.025-0.273 0.040-0.36 0.143-0.080 0.092-0.14 0.215-0.2 0.328-0.302 0.58-0.675 1.452-0.663 2.123 0.005 0.317 0.547 0.412 0.788 0.52z"></path>
<path fill="#d7598b" style="fill: var(--color17, #d7598b)" d="M4.162 8.325c0.183 0.28 0.345 0.535 0.56 0.8 0.21 0.255 0.36 0.305 0.617 0.092 0.162-0.13 0.348-0.232 0.502-0.373 0.147-0.13 0.27-0.295 0.418-0.43 0.105-0.098 0.313-0.195 0.372-0.33 0.082-0.19-0.090-0.355-0.195-0.495-0.13-0.175-0.23-0.365-0.372-0.54-0.183-0.22-0.38-0.428-0.585-0.633-0.168-0.168-0.37-0.425-0.56-0.555-0.050-0.032-0.107-0.055-0.168-0.063-0.228-0.032-0.497 0.098-0.675 0.202-0.243 0.143-0.478 0.355-0.69 0.542-0.333 0.295-0.010 0.683 0.185 0.963 0.195 0.27 0.405 0.533 0.59 0.818z"></path>
<path fill="#40c0e7" style="fill: var(--color18, #40c0e7)" d="M4.183 2.493c0.168 0.18 0.375 0.397 0.61 0.5 0.207 0.092 0.42-0.092 0.588-0.195 0.188-0.115 0.34-0.282 0.48-0.45 0.128-0.155 0.3-0.322 0.395-0.502 0.11-0.205-0.040-0.282-0.192-0.405-0.183-0.15-0.367-0.305-0.522-0.485-0.21-0.245-0.42-0.52-0.643-0.745-0.075-0.078-0.165-0.098-0.26-0.080-0.298 0.050-0.65 0.467-0.825 0.605-0.14 0.108-0.385 0.298-0.428 0.475-0.053 0.2 0.065 0.393 0.165 0.56 0.163 0.27 0.413 0.487 0.633 0.723z"></path>
<path fill="#ed6c30" style="fill: var(--color19, #ed6c30)" d="M11.465 7.298c0.345 1.195-0.575 2.118-0.675 3.25-0.030 0.328-0.030 0.655 0.025 0.97 0.035 0.205 0.092 0.405 0.195 0.588 0.135 0.24 0.29 0.457 0.432 0.682 0.14 0.217 0.265 0.438 0.35 0.69 0.188 0.56 0.057 1.065-0.023 1.62-0.065 0.443-0.29 0.86-0.56 1.21-0.082 0.108-0.31 0.245-0.255 0.402 0.008 0.027 0.057 0.038 0.13 0.038 0.3 0 1.008-0.183 1.11-0.23 0.45-0.218 0.713-0.658 0.945-1.082 0.345-0.63 0.568-1.365 0.47-2.088-0.020-0.165-0.065-0.32-0.12-0.47-0.168-0.447-0.445-0.848-0.602-1.305-0.020-0.055-0.040-0.11-0.055-0.168-0.23-0.895 0.322-1.773 0.787-2.485 0.457-0.697 0.63-1.723 0.305-2.522-0.165-0.405-0.43-0.81-0.752-1.107-0.383-0.355-0.965-0.678-0.9-1.29 0.055-0.532 0.415-1.093 0.688-1.532 0.135-0.223 0.56-0.677 0.545-0.933-0.012-0.26-0.375-0.39-0.547-0.542-0.39-0.345-0.7-0.61-1.2-0.767-0.090-0.030-0.165-0.043-0.235-0.043-0.322 0-0.435 0.292-0.615 0.608-0.33 0.583-0.655 1.198-0.875 1.827-0.415 1.17-0.477 2.377 0.42 3.472 0.31 0.383 0.883 0.758 1.012 1.207z"></path>
<path fill="#ed6c30" style="fill: var(--color19, #ed6c30)" d="M15.52 17.385c0.063 0.065 0.12 0.093 0.172 0.093 0.098 0 0.175-0.1 0.238-0.218 0.047-0.090 0.085-0.183 0.115-0.28 0.168-0.563 0.5-1.12 0.775-1.64 0.050-0.092 0.1-0.182 0.148-0.273 0.19-0.357 0.385-0.715 0.587-1.070 0.157-0.28 0.315-0.563 0.485-0.832 0.445-0.713 1.045-1.473 1.8-1.87 0.475-0.255 1.010-0.373 1.488-0.625 0.543-0.283 0.86-0.71 1.212-1.197 0.35-0.482 0.532-1.078 0.852-1.585 0.135-0.215 0.115-0.405 0.352-0.555 0.527-0.33 1.16-0.218 1.745-0.33 1.383-0.265 1.505-2.087 2.635-2.745 0.238-0.138 0.48-0.265 0.72-0.393 0.14-0.075 0.41-0.167 0.508-0.305 0.168-0.235-0.15-0.542-0.245-0.757-0.165-0.37-0.413-0.743-0.625-1.087-0.18-0.29-0.34-0.552-0.66-0.552l-0.063 0.005c-0.723 0.070-1.367 0.387-1.83 0.94-0.563 0.675-0.637 1.718-1.523 2.088-0.575 0.24-1.253 0.145-1.797 0.478-0.645 0.395-0.852 1.175-1.032 1.86-0.135 0.5-0.142 1.103-0.523 1.495-0.515 0.527-1.297 0.592-1.957 0.875-0.177 0.078-0.348 0.17-0.5 0.29-0.837 0.66-1.313 1.742-1.688 2.713-0.152 0.398-0.29 0.803-0.425 1.207-0.125 0.377-0.247 0.755-0.365 1.135-0.060 0.195-0.125 0.39-0.185 0.588-0.152 0.495-0.293 1.002-0.473 1.49-0.125 0.313-0.203 0.79 0.057 1.060z"></path>
<path fill="#ed6c30" style="fill: var(--color19, #ed6c30)" d="M31.86 21.7c-0.047-0.050-0.115-0.055-0.183-0.055l-0.078 0.003-0.043-0.003c-0.15-0.010-0.275-0.075-0.42-0.125-0.668-0.233-1.1-0.425-1.69-0.823-0.665-0.448-1.427-0.865-2.247-0.902l-0.095-0.003c-0.81 0-1.558 0.427-2.37 0.427h-0.005c-0.9-0.005-1.677-0.645-2.387-1.117-0.060-0.040-0.12-0.078-0.185-0.113-0.558-0.315-1.157-0.453-1.762-0.46-0.015 0-0.032-0.005-0.047-0.005-0.418 0-0.837 0.065-1.247 0.18-0.4 0.11-0.788 0.27-1.157 0.468-0.527 0.28-1.035 0.617-1.497 0.992-0.258 0.207-0.54 0.445-0.715 0.733-0.095 0.152-0.225 0.733 0.018 0.828l0.033 0.008c0.095 0 0.25-0.1 0.317-0.142 0.54-0.332 1.11-0.622 1.718-0.813 0.497-0.157 1.020-0.273 1.538-0.293 0.043-0.003 0.087-0.005 0.13-0.005 0.372 0 0.742 0.058 1.102 0.198 0.005 0.003 0.010 0.005 0.015 0.008 0.503 0.2 0.922 0.545 1.337 0.883 0.61 0.495 1.288 0.605 1.977 0.605 0.538 0 1.082-0.065 1.615-0.065 0.558 0 1.098 0.073 1.595 0.365 0.405 0.242 0.77 0.56 1.082 0.898 0.345 0.367 0.785 0.675 1.302 0.755 0.22 0.035 0.42 0.052 0.642 0.055h0.005c0.375 0 0.517-0.433 0.707-0.68 0.26-0.335 0.44-0.72 0.677-1.073 0.1-0.155 0.488-0.558 0.317-0.727z"></path>
</symbol>
</defs>
</svg>
